<?xml version="1.0" encoding="utf-8"?>
<!-- Generator: Adobe Illustrator 26.0.1, SVG Export Plug-In . SVG Version: 6.00 Build 0)  -->
<svg version="1.1" id="Layer_1" xmlns="http://www.w3.org/2000/svg" xmlns:xlink="http://www.w3.org/1999/xlink" x="0px" y="0px"
	 width="1080px" height="1080px" viewBox="0 0 1080 1080" style="enable-background:new 0 0 1080 1080;" xml:space="preserve">
<style type="text/css">
	.st0{fill:#0033A1;}
	.st1{fill:#DCE3EB;}
	.st2{fill:#194F90;}
	.st3{fill:#FFFFFF;}
</style>
<g>
	<g>
		<circle class="st0" cx="820.45" cy="536.35" r="58.27"/>
		<g>
			<path class="st0" d="M870.18,763.32l-120.6-61.75c-35.01-17.93-75.03-2.8-89.43,33.79l-50.59,128.82v0
				c-2.48,8.21-10.04,13.82-18.62,13.82h-41.86l76.06-384.79c3.12-15.63,23.13-20.55,33.06-8.09l211.75,265.23
				C873.34,754.6,872.84,759.75,870.18,763.32z"/>
			<g>
				<path class="st0" d="M203.43,763.32l120.6-61.75c35.01-17.93,75.03-2.8,89.43,33.79l50.59,128.82v0
					c3.52,8.38,11.73,13.82,20.81,13.82h39.67l-76.06-384.79c-3.12-15.63-23.13-20.55-33.06-8.09L203.66,750.35
					C200.27,754.6,200.77,759.75,203.43,763.32z"/>
				<circle class="st0" cx="259.55" cy="536.35" r="58.27"/>
			</g>
		</g>
		<circle class="st0" cx="539.18" cy="262.56" r="60.56"/>
		<g>
			<g>
				<path class="st0" d="M714.23,286.65c-0.18,0.18-0.41,0.32-0.68,0.45c-36.5,20.37-71.77,41.6-107.45,61.2
					c-54.47,34.33-69.74,85.91-69.74,85.91c-9.26-37.9-34.42-67.08-68.11-85.91c-13.14-7.36-24.84-14.05-38.03-21.36
					c-23.35-12.96-48.51-25.97-72.54-39.3l1.04-2.03c24.25,13.01,49.64,25.7,73.31,38.39c12.92,6.91,24.48,13.23,37.4,20.24
					c33.11,17.93,57.86,45.57,66.94,81.57c0,0,15.04-48.92,68.57-81.57c35.68-18.93,70.96-39.43,107.55-59.08
					c0.32-0.18,0.59-0.32,0.86-0.36L714.23,286.65z"/>
			</g>
			<g>
				<path class="st0" d="M710.08,277.89c-35.73,18.43-70.19,37.67-105.06,55.42c-53.61,31.3-68.7,78.32-68.7,78.32
					c-9.08-34.55-33.83-61.16-66.99-78.32c-12.92-6.73-24.48-12.78-37.4-19.47c-22.9-11.79-45.85-23.58-69.33-35.68l0.77-1.45
					c23.8,11.79,47.07,23.4,70.33,34.92c12.69,6.32,24.08,12.06,36.77,18.43c32.61,16.35,56.96,41.56,65.86,74.39
					c0,0,14.82-44.63,67.53-74.39c35.05-17.21,69.6-35.86,105.51-53.71L710.08,277.89z"/>
			</g>
		</g>
		<path class="st0" d="M745.71,350.93c-9.94,5.56-19.49,10.88-29.04,16.21c-26.07,14.33-51.83,29.12-78.21,42.75
			c-20.67,10.73-34.13,25.83-39.38,47.13c0,0.16-0.08,0.24-0.08,0.39c-0.86,3.44-1.49,6.97-1.88,10.73l-0.78,4.54l-52.45,299.22
			H531.2c-14.41-78.05-47.83-261.72-55.58-304.38c-0.08-0.16-0.08-0.24-0.08-0.31c-0.16-0.47-0.31-1.02-0.39-1.49
			c-1.33-4.62-2.5-9-3.84-13.39c-1.17-3.44-2.35-6.81-3.76-10.1c-5.32-12.13-15.11-21.84-26.77-28.26
			c-36.4-19.88-72.81-39.93-109.13-59.97c-2.35-1.33-4.62-2.74-7.75-4.54c9.63-17.46,19.1-34.68,28.73-52.22
			c0.78-1.41,2.58-1.96,3.99-1.17c24.43,13.47,48.3,26.54,72.18,39.69c13.31,7.36,25.21,14.01,38.52,21.37
			c34.13,18.95,59.66,48.22,68.97,86.27c0,0,15.58-51.75,70.77-86.27c36.01-19.57,71.48-40.71,108.35-61.06
			c1.41-0.78,3.21-0.23,3.99,1.17c9.16,16.52,18.08,32.8,27.48,49.71C747.66,348.35,747.12,350.15,745.71,350.93z"/>
	</g>
</g>
</svg>
