<?xml version="1.0" encoding="utf-8"?>
<!-- Generator: Adobe Illustrator 26.0.1, SVG Export Plug-In . SVG Version: 6.00 Build 0)  -->
<svg version="1.1" id="Layer_1" xmlns="http://www.w3.org/2000/svg" xmlns:xlink="http://www.w3.org/1999/xlink" x="0px" y="0px"
	 width="1000px" height="600px" viewBox="0 0 1000 600" style="enable-background:new 0 0 1000 600;" xml:space="preserve">
<style type="text/css">
	.st0{fill:#0033A1;}
	.st1{fill:#DCE3EB;}
	.st2{fill:#194F90;}
	.st3{fill:#FFFFFF;}
</style>
<g>
	<g>
		<circle class="st2" cx="646.96" cy="298.09" r="30.54"/>
		<g>
			<path class="st2" d="M673.02,417.02l-63.2-32.36c-18.34-9.4-39.32-1.47-46.87,17.7l-26.51,67.51l0,0
				c-1.3,4.3-5.26,7.24-9.76,7.24h-21.94l39.86-201.64c1.63-8.19,12.12-10.77,17.33-4.24L672.9,410.23
				C674.68,412.46,674.42,415.15,673.02,417.02z"/>
			<g>
				<path class="st2" d="M323.63,417.02l63.2-32.36c18.34-9.4,39.32-1.47,46.87,17.7l26.51,67.51l0,0
					c1.85,4.39,6.14,7.24,10.91,7.24h20.79l-39.86-201.64c-1.63-8.19-12.12-10.77-17.33-4.24L323.75,410.23
					C321.97,412.46,322.23,415.15,323.63,417.02z"/>
				<circle class="st2" cx="353.04" cy="298.09" r="30.54"/>
			</g>
		</g>
		<circle class="st2" cx="499.57" cy="154.61" r="31.73"/>
		<g>
			<g>
				<path class="st2" d="M591.3,167.24c-0.09,0.09-0.21,0.17-0.36,0.24c-19.12,10.67-37.61,21.8-56.31,32.07
					c-28.55,17.99-36.55,45.02-36.55,45.02c-4.85-19.86-18.04-35.15-35.69-45.02c-6.89-3.86-13.02-7.36-19.93-11.2
					c-12.24-6.79-25.42-13.61-38.01-20.59l0.54-1.07c12.71,6.82,26.01,13.47,38.42,20.12c6.77,3.62,12.83,6.94,19.6,10.6
					c17.35,9.4,30.32,23.88,35.08,42.75c0,0,7.88-25.63,35.93-42.75c18.7-9.92,37.18-20.66,56.36-30.96
					c0.17-0.09,0.31-0.17,0.45-0.19L591.3,167.24z"/>
			</g>
			<g>
				<path class="st2" d="M589.12,162.65c-18.72,9.66-36.78,19.74-55.05,29.04c-28.1,16.4-36,41.04-36,41.04
					c-4.76-18.11-17.73-32.05-35.1-41.04c-6.77-3.53-12.83-6.7-19.6-10.2c-12-6.18-24.02-12.36-36.33-18.7l0.4-0.76
					c12.47,6.18,24.66,12.26,36.85,18.3c6.65,3.31,12.62,6.32,19.27,9.66c17.09,8.57,29.85,21.78,34.51,38.98
					c0,0,7.76-23.39,35.39-38.98c18.37-9.02,36.47-18.79,55.29-28.14L589.12,162.65z"/>
			</g>
		</g>
		<path class="st2" d="M607.8,200.92c-5.21,2.91-10.22,5.7-15.22,8.49c-13.66,7.51-27.16,15.26-40.98,22.4
			c-10.83,5.62-17.89,13.54-20.64,24.7c0,0.08-0.04,0.12-0.04,0.21c-0.45,1.81-0.78,3.65-0.98,5.62l-0.41,2.38l-27.49,156.8h-6.65
			c-7.55-40.9-25.07-137.14-29.13-159.5c-0.04-0.08-0.04-0.12-0.04-0.16c-0.08-0.25-0.16-0.53-0.21-0.78
			c-0.7-2.42-1.31-4.72-2.01-7.02c-0.62-1.81-1.23-3.57-1.97-5.29c-2.79-6.36-7.92-11.45-14.03-14.81
			c-19.08-10.42-38.15-20.92-57.19-31.42c-1.23-0.7-2.42-1.44-4.06-2.38c5.05-9.15,10.01-18.17,15.06-27.36
			c0.41-0.74,1.35-1.03,2.09-0.62c12.8,7.06,25.31,13.91,37.82,20.8c6.97,3.86,13.21,7.34,20.18,11.2
			c17.89,9.93,31.26,25.27,36.14,45.21c0,0,8.16-27.12,37.09-45.21c18.87-10.26,37.46-21.33,56.78-32c0.74-0.41,1.68-0.12,2.09,0.62
			c4.8,8.66,9.48,17.19,14.4,26.05C608.82,199.57,608.53,200.51,607.8,200.92z"/>
	</g>
</g>
</svg>
