<?xml version="1.0" encoding="utf-8"?>
<!-- Generator: Adobe Illustrator 26.0.1, SVG Export Plug-In . SVG Version: 6.00 Build 0)  -->
<svg version="1.1" id="Layer_1" xmlns="http://www.w3.org/2000/svg" xmlns:xlink="http://www.w3.org/1999/xlink" x="0px" y="0px"
	 width="170px" height="50px" viewBox="0 0 170 50" style="enable-background:new 0 0 170 50;" xml:space="preserve">
<style type="text/css">
	.st0{fill:#0033A1;}
	.st1{fill:#DCE3EB;}
	.st2{fill:#194F90;}
	.st3{fill:#FFFFFF;}
</style>
<g>
	<g>
		<g>
			<circle class="st1" cx="70.19" cy="24.81" r="3.08"/>
			<g>
				<path class="st1" d="M72.81,36.79l-6.37-3.26c-1.85-0.95-3.96-0.15-4.72,1.78l-2.67,6.8v0c-0.13,0.43-0.53,0.73-0.98,0.73h-2.21
					l4.02-20.31c0.16-0.83,1.22-1.08,1.75-0.43l11.18,14C72.98,36.33,72.95,36.6,72.81,36.79z"/>
				<g>
					<path class="st1" d="M37.61,36.79l6.37-3.26c1.85-0.95,3.96-0.15,4.72,1.78l2.67,6.8v0c0.19,0.44,0.62,0.73,1.1,0.73h2.09
						l-4.02-20.31c-0.16-0.83-1.22-1.08-1.75-0.43l-11.18,14C37.45,36.33,37.47,36.6,37.61,36.79z"/>
					<circle class="st1" cx="40.58" cy="24.81" r="3.08"/>
				</g>
			</g>
			<circle class="st1" cx="55.34" cy="10.35" r="3.2"/>
			<g>
				<g>
					<path class="st1" d="M64.58,11.63c-0.01,0.01-0.02,0.02-0.04,0.02c-1.93,1.08-3.79,2.2-5.67,3.23
						c-2.88,1.81-3.68,4.54-3.68,4.54c-0.49-2-1.82-3.54-3.6-4.54c-0.69-0.39-1.31-0.74-2.01-1.13c-1.23-0.68-2.56-1.37-3.83-2.07
						l0.05-0.11c1.28,0.69,2.62,1.36,3.87,2.03c0.68,0.36,1.29,0.7,1.97,1.07c1.75,0.95,3.05,2.41,3.53,4.31
						c0,0,0.79-2.58,3.62-4.31c1.88-1,3.75-2.08,5.68-3.12c0.02-0.01,0.03-0.02,0.05-0.02L64.58,11.63z"/>
				</g>
				<g>
					<path class="st1" d="M64.36,11.16c-1.89,0.97-3.71,1.99-5.55,2.93c-2.83,1.65-3.63,4.13-3.63,4.13
						c-0.48-1.82-1.79-3.23-3.54-4.13c-0.68-0.36-1.29-0.67-1.97-1.03c-1.21-0.62-2.42-1.24-3.66-1.88l0.04-0.08
						c1.26,0.62,2.48,1.24,3.71,1.84c0.67,0.33,1.27,0.64,1.94,0.97c1.72,0.86,3.01,2.19,3.48,3.93c0,0,0.78-2.36,3.57-3.93
						c1.85-0.91,3.67-1.89,5.57-2.84L64.36,11.16z"/>
				</g>
			</g>
			<path class="st1" d="M66.24,15.02c-0.52,0.29-1.03,0.57-1.53,0.86c-1.38,0.76-2.74,1.54-4.13,2.26c-1.09,0.57-1.8,1.36-2.08,2.49
				c0,0.01,0,0.01,0,0.02c-0.05,0.18-0.08,0.37-0.1,0.57l-0.04,0.24l-2.77,15.8h-0.67c-0.76-4.12-2.53-13.82-2.93-16.07
				c0-0.01,0-0.01,0-0.02c-0.01-0.02-0.02-0.05-0.02-0.08c-0.07-0.24-0.13-0.48-0.2-0.71c-0.06-0.18-0.12-0.36-0.2-0.53
				c-0.28-0.64-0.8-1.15-1.41-1.49c-1.92-1.05-3.84-2.11-5.76-3.17c-0.12-0.07-0.24-0.14-0.41-0.24c0.51-0.92,1.01-1.83,1.52-2.76
				c0.04-0.07,0.14-0.1,0.21-0.06c1.29,0.71,2.55,1.4,3.81,2.1c0.7,0.39,1.33,0.74,2.03,1.13c1.8,1,3.15,2.55,3.64,4.55
				c0,0,0.82-2.73,3.74-4.55c1.9-1.03,3.77-2.15,5.72-3.22c0.07-0.04,0.17-0.01,0.21,0.06c0.48,0.87,0.95,1.73,1.45,2.62
				C66.35,14.88,66.32,14.98,66.24,15.02z"/>
		</g>
	</g>
	<g>
		<g>
			<path class="st1" d="M79.27,14.92h2.63c0.78,0,1.41,0.63,1.41,1.41V32.9c0,0.13-0.11,0.24-0.24,0.24h-2.63
				c-0.78,0-1.41-0.63-1.41-1.41V15.17C79.03,15.03,79.14,14.92,79.27,14.92z"/>
			<path class="st1" d="M84.14,24.05c0-5.18,3.85-9.13,9.13-9.13c4.21,0,7.44,2.57,8.49,6.23c0.04,0.15-0.08,0.31-0.24,0.31l-3.48,0
				c-0.46,0-0.87-0.24-1.12-0.62C96.15,19.68,94.87,19,93.27,19c-2.92,0-4.8,2.11-4.8,5.06s1.89,5.06,4.8,5.06
				c1.6,0,2.88-0.68,3.65-1.85c0.25-0.38,0.67-0.62,1.12-0.62l3.48,0c0.16,0,0.28,0.16,0.24,0.31c-1.05,3.66-4.29,6.23-8.49,6.23
				C87.99,33.18,84.14,29.24,84.14,24.05z"/>
			<path class="st1" d="M114.92,19h-4.32c-0.13,0-0.24,0.11-0.24,0.24V32.9c0,0.13-0.11,0.24-0.24,0.24h-2.63
				c-0.78,0-1.41-0.63-1.41-1.41v-12.5c0-0.13-0.11-0.24-0.24-0.24h-3.13c-0.78,0-1.41-0.63-1.41-1.41v-2.43
				c0-0.13,0.11-0.24,0.24-0.24h12.21c0.78,0,1.41,0.63,1.41,1.41v2.43C115.16,18.89,115.05,19,114.92,19z"/>
			<path class="st1" d="M114.87,24.05c0-5.18,3.85-9.13,9.13-9.13c4.21,0,7.44,2.57,8.49,6.23c0.04,0.15-0.08,0.31-0.24,0.31
				l-3.48,0c-0.46,0-0.87-0.24-1.12-0.62C126.87,19.68,125.59,19,124,19c-2.92,0-4.8,2.11-4.8,5.06s1.89,5.06,4.8,5.06
				c1.6,0,2.88-0.68,3.65-1.85c0.25-0.38,0.67-0.62,1.12-0.62l3.48,0c0.16,0,0.28,0.16,0.24,0.31c-1.05,3.66-4.29,6.23-8.49,6.23
				C118.72,33.18,114.87,29.24,114.87,24.05z"/>
		</g>
		<g>
			<g>
				<path class="st1" d="M79.19,36.78h0.35v2.37h-0.35V36.78z"/>
				<path class="st1" d="M82.2,36.78v2.37h-0.41l-1.08-1.83l0.03,0.84v0.99h-0.35v-2.37h0.41l1.08,1.83l-0.03-0.84v-0.99H82.2z"/>
				<path class="st1" d="M84.56,37.15H83.9v2h-0.35v-2H82.9v-0.37h1.66V37.15z"/>
				<path class="st1" d="M85.63,37.15v0.61h0.98v0.37h-0.98v0.66h1.06v0.37h-1.41v-2.37h1.41v0.37H85.63z"/>
				<path class="st1" d="M88.13,38.27H87.8v0.88h-0.35v-2.37h0.89c0.47,0,0.73,0.3,0.73,0.75c0,0.39-0.2,0.64-0.54,0.71l0.64,0.9
					h-0.43L88.13,38.27z M87.8,37.93h0.5c0.29,0,0.42-0.16,0.42-0.39s-0.14-0.39-0.42-0.39h-0.5V37.93z"/>
				<path class="st1" d="M91.68,36.78v2.37h-0.41l-1.08-1.83l0.03,0.84v0.99h-0.35v-2.37h0.41l1.08,1.83l-0.03-0.84v-0.99H91.68z"/>
				<path class="st1" d="M93.9,38.52h-0.94l-0.22,0.64h-0.37l0.83-2.37h0.44l0.83,2.37h-0.37L93.9,38.52z M93.78,38.15l-0.34-0.99
					l-0.34,0.99H93.78z"/>
				<path class="st1" d="M96.42,37.15h-0.66v2h-0.35v-2h-0.66v-0.37h1.66V37.15z"/>
				<path class="st1" d="M97.14,36.78h0.35v2.37h-0.35V36.78z"/>
				<path class="st1" d="M100.5,37.97c0,0.7-0.49,1.23-1.12,1.23s-1.12-0.53-1.12-1.23c0-0.7,0.49-1.23,1.12-1.23
					S100.5,37.27,100.5,37.97z M98.62,37.97c0,0.49,0.33,0.86,0.77,0.86c0.43,0,0.76-0.37,0.76-0.86c0-0.49-0.33-0.86-0.76-0.86
					C98.95,37.11,98.62,37.47,98.62,37.97z"/>
				<path class="st1" d="M103.07,36.78v2.37h-0.41l-1.08-1.83l0.03,0.84v0.99h-0.35v-2.37h0.41l1.08,1.83l-0.03-0.84v-0.99H103.07z"
					/>
				<path class="st1" d="M105.29,38.52h-0.94l-0.22,0.64h-0.37l0.83-2.37h0.44l0.83,2.37h-0.37L105.29,38.52z M105.17,38.15
					l-0.34-0.99l-0.34,0.99H105.17z"/>
				<path class="st1" d="M107.93,38.79v0.37h-1.33v-2.37h0.35v2H107.93z"/>
				<path class="st1" d="M109.85,37.97c0-0.7,0.47-1.23,1.11-1.23c0.5,0,0.9,0.33,1.03,0.82h-0.37c-0.11-0.28-0.36-0.46-0.66-0.46
					c-0.44,0-0.76,0.37-0.76,0.86c0,0.49,0.32,0.86,0.76,0.86c0.3,0,0.55-0.18,0.66-0.46h0.37c-0.14,0.49-0.53,0.82-1.03,0.82
					C110.32,39.19,109.85,38.67,109.85,37.97z"/>
				<path class="st1" d="M113.09,37.15v0.61h0.98v0.37h-0.98v0.66h1.06v0.37h-1.41v-2.37h1.41v0.37H113.09z"/>
				<path class="st1" d="M116.68,36.78v2.37h-0.41l-1.08-1.83l0.03,0.84v0.99h-0.35v-2.37h0.41l1.08,1.83l-0.03-0.84v-0.99H116.68z"
					/>
				<path class="st1" d="M119.04,37.15h-0.66v2h-0.35v-2h-0.66v-0.37h1.66V37.15z"/>
				<path class="st1" d="M120.11,37.15v0.61h0.98v0.37h-0.98v0.66h1.06v0.37h-1.41v-2.37h1.41v0.37H120.11z"/>
				<path class="st1" d="M122.61,38.27h-0.33v0.88h-0.35v-2.37h0.89c0.47,0,0.73,0.3,0.73,0.75c0,0.39-0.2,0.64-0.54,0.71l0.64,0.9
					h-0.43L122.61,38.27z M122.28,37.93h0.5c0.29,0,0.42-0.16,0.42-0.39s-0.14-0.39-0.42-0.39h-0.5V37.93z"/>
				<path class="st1" d="M126.01,37.15v0.63H127v0.37h-0.98v1.01h-0.35v-2.37h1.41v0.37H126.01z"/>
				<path class="st1" d="M129.96,37.97c0,0.7-0.49,1.23-1.12,1.23c-0.63,0-1.12-0.53-1.12-1.23c0-0.7,0.49-1.23,1.12-1.23
					C129.48,36.74,129.96,37.27,129.96,37.97z M128.08,37.97c0,0.49,0.33,0.86,0.77,0.86c0.43,0,0.76-0.37,0.76-0.86
					c0-0.49-0.33-0.86-0.76-0.86C128.41,37.11,128.08,37.47,128.08,37.97z"/>
				<path class="st1" d="M131.42,38.27h-0.33v0.88h-0.35v-2.37h0.89c0.47,0,0.73,0.3,0.73,0.75c0,0.39-0.2,0.64-0.54,0.71l0.64,0.9
					h-0.43L131.42,38.27z M131.09,37.93h0.5c0.29,0,0.42-0.16,0.42-0.39s-0.14-0.39-0.42-0.39h-0.5V37.93z"/>
			</g>
			<g>
				<path class="st1" d="M80.64,40.87H80v1.94h-0.34v-1.94h-0.63v-0.35h1.61V40.87z"/>
				<path class="st1" d="M81.99,41.95h-0.32v0.85h-0.34v-2.29h0.86c0.45,0,0.71,0.29,0.71,0.73c0,0.38-0.19,0.62-0.52,0.69
					l0.62,0.87h-0.41L81.99,41.95z M81.66,41.62h0.49c0.28,0,0.4-0.16,0.4-0.38s-0.13-0.38-0.4-0.38h-0.49V41.62z"/>
				<path class="st1" d="M85.01,42.19h-0.9l-0.21,0.61h-0.36l0.81-2.29h0.43l0.81,2.29h-0.36L85.01,42.19z M84.88,41.84l-0.33-0.96
					l-0.33,0.96H84.88z"/>
				<path class="st1" d="M86.27,40.52h0.34v2.29h-0.34V40.52z"/>
				<path class="st1" d="M89.17,40.52v2.29h-0.4l-1.04-1.77l0.03,0.81v0.96h-0.34v-2.29h0.4l1.04,1.77l-0.03-0.81v-0.96H89.17z"/>
				<path class="st1" d="M90,40.52h0.34v2.29H90V40.52z"/>
				<path class="st1" d="M92.91,40.52v2.29h-0.4l-1.04-1.77l0.03,0.81v0.96h-0.34v-2.29h0.4l1.04,1.77l-0.03-0.81v-0.96H92.91z"/>
				<path class="st1" d="M95.74,41.59v1.22h-0.29v-0.46c-0.1,0.29-0.38,0.5-0.75,0.5c-0.59,0-1.04-0.5-1.04-1.18
					c0-0.68,0.46-1.19,1.07-1.19c0.48,0,0.87,0.31,1,0.78h-0.36c-0.11-0.26-0.34-0.43-0.64-0.43c-0.42,0-0.73,0.35-0.73,0.84
					c0,0.46,0.28,0.83,0.73,0.83c0.35,0,0.62-0.23,0.68-0.6h-0.78v-0.31H95.74z"/>
				<path class="st1" d="M99.13,42.19h-0.9l-0.21,0.61h-0.36l0.81-2.29h0.43l0.81,2.29h-0.36L99.13,42.19z M99.01,41.84l-0.33-0.96
					l-0.33,0.96H99.01z"/>
				<path class="st1" d="M102.12,40.52v2.29h-0.4l-1.04-1.77l0.03,0.81v0.96h-0.34v-2.29h0.4l1.04,1.77l-0.03-0.81v-0.96H102.12z"/>
				<path class="st1" d="M104.74,41.66c0,0.66-0.46,1.14-1.06,1.14h-0.73v-2.29h0.73C104.28,40.52,104.74,41,104.74,41.66z
					 M104.41,41.66c0-0.46-0.31-0.79-0.73-0.79h-0.4v1.58h0.4C104.1,42.45,104.41,42.13,104.41,41.66z"/>
				<path class="st1" d="M106.66,41.66c0-0.68,0.45-1.18,1.07-1.18c0.48,0,0.87,0.32,1,0.79h-0.36c-0.11-0.27-0.34-0.44-0.64-0.44
					c-0.43,0-0.73,0.35-0.73,0.83c0,0.48,0.31,0.83,0.73,0.83c0.29,0,0.53-0.17,0.64-0.44h0.36c-0.13,0.47-0.51,0.79-1,0.79
					C107.12,42.84,106.66,42.34,106.66,41.66z"/>
				<path class="st1" d="M111.52,41.66c0,0.67-0.47,1.18-1.08,1.18c-0.61,0-1.08-0.51-1.08-1.18c0-0.67,0.47-1.18,1.08-1.18
					C111.05,40.48,111.52,40.99,111.52,41.66z M109.71,41.66c0,0.48,0.32,0.83,0.74,0.83c0.42,0,0.74-0.35,0.74-0.83
					c0-0.48-0.32-0.83-0.74-0.83C110.02,40.83,109.71,41.18,109.71,41.66z"/>
				<path class="st1" d="M114,40.52v2.29h-0.4l-1.04-1.77l0.03,0.81v0.96h-0.34v-2.29h0.4l1.04,1.77l-0.03-0.81v-0.96H114z"/>
				<path class="st1" d="M116.38,42.15c0,0.5-0.4,0.7-0.78,0.7c-0.58,0-0.84-0.35-0.89-0.75h0.34c0.06,0.27,0.22,0.4,0.55,0.4
					c0.28,0,0.44-0.12,0.44-0.33c0-0.21-0.17-0.25-0.56-0.34c-0.4-0.1-0.72-0.22-0.72-0.65c0-0.45,0.37-0.69,0.76-0.69
					c0.52,0,0.76,0.3,0.82,0.66h-0.34c-0.06-0.19-0.2-0.31-0.48-0.31c-0.28,0-0.43,0.14-0.43,0.34c0,0.16,0.12,0.22,0.46,0.3
					C116.09,41.58,116.38,41.71,116.38,42.15z"/>
				<path class="st1" d="M118.79,40.52v1.38c0,0.64-0.36,0.95-0.84,0.95s-0.84-0.31-0.84-0.95v-1.38h0.34v1.35
					c0,0.44,0.21,0.62,0.5,0.62s0.5-0.18,0.5-0.62v-1.35H118.79z"/>
				<path class="st1" d="M120.9,42.45v0.35h-1.28v-2.29h0.34v1.94H120.9z"/>
				<path class="st1" d="M122.65,40.87h-0.64v1.94h-0.34v-1.94h-0.63v-0.35h1.61V40.87z"/>
				<path class="st1" d="M124.38,42.19h-0.9l-0.21,0.61h-0.36l0.81-2.29h0.43l0.81,2.29h-0.36L124.38,42.19z M124.26,41.84
					l-0.33-0.96l-0.33,0.96H124.26z"/>
				<path class="st1" d="M127.37,40.52v2.29h-0.4l-1.04-1.77l0.03,0.81v0.96h-0.34v-2.29h0.4l1.04,1.77l-0.03-0.81v-0.96H127.37z"/>
				<path class="st1" d="M128.12,41.66c0-0.68,0.45-1.18,1.07-1.18c0.48,0,0.87,0.32,1,0.79h-0.36c-0.11-0.27-0.34-0.44-0.64-0.44
					c-0.43,0-0.73,0.35-0.73,0.83c0,0.48,0.31,0.83,0.73,0.83c0.29,0,0.53-0.17,0.64-0.44h0.36c-0.13,0.47-0.51,0.79-1,0.79
					C128.57,42.84,128.12,42.34,128.12,41.66z"/>
				<path class="st1" d="M131.75,42.02l0,0.79h-0.34v-0.78l-0.75-1.51h0.38l0.54,1.09l0.54-1.09h0.38L131.75,42.02z"/>
			</g>
		</g>
	</g>
</g>
</svg>
